<svg xmlns="http://www.w3.org/2000/svg" viewBox="0 0 128 128" fill="currentColor"
  stroke="currentColor" stroke-width="3">
  <path
    d="M106.352,53.8A20.589,20.589,0,0,0,86.5,38.44c-.634,0-1.259.028-1.869.083A30.5,30.5,0,0,0,27.258,52.246,26.832,26.832,0,0,0,31.58,105.56H96.42A26.832,26.832,0,0,0,106.352,53.8ZM96.42,102.06H31.58A23.331,23.331,0,0,1,29.2,55.521a1.75,1.75,0,0,0,1.569-1.866c-.017-.238-.016-.477-.016-.715a27,27,0,0,1,51.3-11.767,1.746,1.746,0,0,0,1.852.965,16.507,16.507,0,0,1,2.594-.2,17.065,17.065,0,0,1,16.646,13.526,1.751,1.751,0,0,0,1.125,1.292,23.332,23.332,0,0,1-7.852,45.3Z"
  />
</svg>