<svg fill="currentColor" stroke="currentColor" viewBox="-21 -163 414 414"
  xmlns="http://www.w3.org/2000/svg">
  <g id="svgGroup" stroke-linecap="round" fill-rule="evenodd" font-size="9pt"
    stroke-width="3mm">
    <path
      d="M 109.229 76.172 L 104.59 76.172 L 116.65 3.418 L 121.289 3.418 L 115.723 36.865 L 159.326 36.865 L 164.893 3.418 L 169.482 3.418 L 157.422 76.172 L 152.832 76.172 L 158.643 41.113 L 115.039 41.113 L 109.229 76.172 Z M 361.523 76.172 L 320.068 76.172 L 332.129 3.418 L 372.754 3.418 L 372.021 7.715 L 336.035 7.715 L 331.104 37.549 L 364.893 37.549 L 364.209 41.797 L 330.42 41.797 L 325.391 71.973 L 362.256 71.973 L 361.523 76.172 Z M 269.287 76.172 L 250.977 76.172 L 251.66 71.924 L 268.994 71.924 Q 278.711 71.924 286.06 68.066 Q 293.408 64.209 298.071 56.934 Q 302.734 49.658 304.395 39.6 Q 306.055 29.541 304.028 22.412 Q 302.002 15.283 296.387 11.475 Q 290.771 7.666 281.689 7.666 L 262.158 7.666 L 262.891 3.418 L 281.934 3.418 Q 292.188 3.418 298.853 7.764 Q 305.518 12.109 308.154 20.19 Q 310.791 28.271 308.887 39.6 Q 306.982 51.172 301.733 59.351 Q 296.484 67.529 288.281 71.851 Q 280.078 76.172 269.287 76.172 Z M 37.793 0 L 42.188 0 L 4.346 87.109 L 0 87.109 L 37.793 0 Z M 71.338 0 L 75.732 0 L 37.891 87.109 L 33.545 87.109 L 71.338 0 Z M 235.01 3.418 L 239.6 3.418 L 227.539 76.172 L 222.949 76.172 L 235.01 3.418 Z M 260.547 3.418 L 265.137 3.418 L 253.076 76.172 L 248.486 76.172 L 260.547 3.418 Z M 181.348 42.92 L 210.107 42.92 L 209.375 47.119 L 180.664 47.119 L 181.348 42.92 Z" />
  </g>
</svg>